<?xml version="1.0" encoding="UTF-8" standalone="no"?>
<svg
   xmlns:dc="http://purl.org/dc/elements/1.1/"
   xmlns:cc="http://creativecommons.org/ns#"
   xmlns:rdf="http://www.w3.org/1999/02/22-rdf-syntax-ns#"
   xmlns:svg="http://www.w3.org/2000/svg"
   xmlns="http://www.w3.org/2000/svg"
   xmlns:sodipodi="http://sodipodi.sourceforge.net/DTD/sodipodi-0.dtd"
   xmlns:inkscape="http://www.inkscape.org/namespaces/inkscape"
   viewBox="0 0 90 90"
   version="1.1"
   x="0px"
   y="0px"
   id="svg2"
   inkscape:version="0.48.4 r9939"
   width="100%"
   height="100%"
   sodipodi:docname="noun_394668_cc.svg">
  <metadata
     id="metadata20">
    <rdf:RDF>
      <cc:Work
         rdf:about="">
        <dc:format>image/svg+xml</dc:format>
        <dc:type
           rdf:resource="http://purl.org/dc/dcmitype/StillImage" />
      </cc:Work>
    </rdf:RDF>
  </metadata>
  <defs
     id="defs18" />
  <sodipodi:namedview
     pagecolor="#ffffff"
     bordercolor="#666666"
     borderopacity="1"
     objecttolerance="10"
     gridtolerance="10"
     guidetolerance="10"
     inkscape:pageopacity="0"
     inkscape:pageshadow="2"
     inkscape:window-width="1366"
     inkscape:window-height="744"
     id="namedview16"
     showgrid="false"
     inkscape:zoom="1.888"
     inkscape:cx="-16.217317"
     inkscape:cy="62.5"
     inkscape:window-x="0"
     inkscape:window-y="24"
     inkscape:window-maximized="1"
     inkscape:current-layer="svg2" />
  <title
     id="title4">tool-12</title>
  <desc
     id="desc6">Created with Sketch.</desc>
  <path
     style="fill:#00bcd4;fill-rule:evenodd;stroke:none"
     inkscape:connector-curvature="0"
     id="path10"
     d="m 33.169446,73.619153 9.185882,0 0,-9.185881 -9.185882,0 0,9.185881 z m -13.758539,0 9.185882,0 0,-9.185881 -9.185882,0 0,9.185881 z m 41.274576,-14.353524 9.18588,0 0,-9.185881 -9.18588,0 0,9.185881 z m -13.757498,0 9.185881,0 0,-9.185881 -9.185881,0 0,9.185881 z m -13.758538,0 9.185881,0 0,-9.185881 -9.185881,0 0,9.185881 z m -13.758539,0 9.185882,0 0,-9.185881 -9.185882,0 0,9.185881 z m 41.274575,-14.354565 9.18588,0 0,-9.185881 -9.18588,0 0,9.185881 z m -13.757498,0 9.185881,0 0,-9.185881 -9.185881,0 0,9.185881 z m -13.758538,0 9.185881,0 0,-9.185881 -9.185881,0 0,9.185881 z m -13.758539,0 9.185882,0 0,-9.185881 -9.185882,0 0,9.185881 z m -11.6979305,40.927152 74.5730045,0 0,-60.636593 -74.5730045,0 0,60.636593 z M 68.076003,7.10551 l 0,-7.10551 -4.160743,0 0,7.10551 -37.831559,0 0,-7.10551 -4.160744,0 0,7.10551 -18.3707225,0 0,82.89449 82.8955315,0 0,-82.89449 -18.371763,0 z" />
</svg>
