<?xml version="1.0" encoding="UTF-8" standalone="no"?>
<svg
   xmlns:dc="http://purl.org/dc/elements/1.1/"
   xmlns:cc="http://creativecommons.org/ns#"
   xmlns:rdf="http://www.w3.org/1999/02/22-rdf-syntax-ns#"
   xmlns:svg="http://www.w3.org/2000/svg"
   xmlns="http://www.w3.org/2000/svg"
   xmlns:sodipodi="http://sodipodi.sourceforge.net/DTD/sodipodi-0.dtd"
   xmlns:inkscape="http://www.inkscape.org/namespaces/inkscape"
   version="1.1"
   x="0px"
   y="0px"
   viewBox="0 0 80 100"
   id="svg2"
   inkscape:version="0.48.4 r9939"
   width="100%"
   height="100%"
   sodipodi:docname="noun_48177_cc.svg">
  <metadata
     id="metadata16">
    <rdf:RDF>
      <cc:Work
         rdf:about="">
        <dc:format>image/svg+xml</dc:format>
        <dc:type
           rdf:resource="http://purl.org/dc/dcmitype/StillImage" />
      </cc:Work>
    </rdf:RDF>
  </metadata>
  <defs
     id="defs14" />
  <sodipodi:namedview
     pagecolor="#ffffff"
     bordercolor="#666666"
     borderopacity="1"
     objecttolerance="10"
     gridtolerance="10"
     guidetolerance="10"
     inkscape:pageopacity="0"
     inkscape:pageshadow="2"
     inkscape:window-width="1366"
     inkscape:window-height="744"
     id="namedview12"
     showgrid="false"
     inkscape:zoom="3.3447072"
     inkscape:cx="42.365443"
     inkscape:cy="49.720347"
     inkscape:window-x="0"
     inkscape:window-y="24"
     inkscape:window-maximized="1"
     inkscape:current-layer="svg2" />
  <g
     transform="translate(-11.336675,-952.90112)"
     id="g4"
     style="fill:#00bcd4">
    <path
       style="text-indent:0;text-transform:none;direction:ltr;block-progression:tb;baseline-shift:baseline;color:#000000;fill:#00bcd4;fill-opacity:1;stroke:none;marker:none;visibility:visible;display:inline;overflow:visible;enable-background:accumulate"
       d="m 72.493713,1032.6781 0,-22.2511 c 0.108557,-0.038 -3.066462,0 -3.066462,0 l 0,22.2511 3.066564,0 z m -16.953855,-1.6665 0.667397,1.6941 7.036754,16.8397 0.667359,1.6941 1.852716,0 22.935348,0 1.852716,0 -0.667359,-1.6941 -7.036754,-16.8397 -0.667397,-1.6941 -1.852716,0 -22.935348,0 z m 5.019972,3.4179 19.293802,0 5.678544,13.3921 -19.293802,0 z m 0.936294,-32.8485 -22.251132,0 c -0.03783,-0.1086 0,3.0665 0,3.0665 l 22.251132,0 0,-3.0666 z m -35.976049,14.0694 0,16.8343 c -0.108485,0.029 3.066514,0 3.066514,0 l 0,-16.8343 -3.066565,0 z m 45.099599,-23.04611 c -5.851648,0 -10.637146,4.7855 -10.637146,10.63711 0,5.8517 4.785498,10.6371 10.637146,10.6371 5.851648,0 10.637146,-4.7854 10.637146,-10.6371 0,-5.85161 -4.785498,-10.63711 -10.637146,-10.63711 z m 0,3.64155 c 3.886649,0 6.995601,3.10895 6.995601,6.99556 0,3.8867 -3.108952,6.9956 -6.995601,6.9956 -3.886649,0 -6.9956,-3.1089 -6.9956,-6.9956 0,-3.88661 3.108951,-6.99556 6.9956,-6.99556 z m -43.567702,34.24456 c -5.851648,0 -10.637145,4.7856 -10.637145,10.6372 0,5.8516 4.785497,10.6371 10.637145,10.6371 5.851649,0 10.637146,-4.7855 10.637146,-10.6371 0,-5.8516 -4.785497,-10.6372 -10.637146,-10.6372 z m 0,3.6416 c 3.886649,0 6.995601,3.109 6.995601,6.9956 0,3.8867 -3.108952,6.9956 -6.995601,6.9956 -3.886648,0 -6.9956,-3.1089 -6.9956,-6.9956 0,-3.8866 3.108952,-6.9956 6.9956,-6.9956 z m 0.02277,-45.38101 -1.184139,1.14921 -12.58526,12.2141 -1.18414,1.1493 1.168958,1.1344 12.554899,12.1845 1.184138,1.1494 1.184139,-1.1494 12.58526,-12.2139 1.184139,-1.1492 -1.184139,-1.1492 -12.554898,-12.18471 -1.168957,-1.1345 z m -0.01518,4.58213 10.201806,9.90098 -10.232168,9.9303 -10.201805,-9.9008 10.232167,-9.93048 z m -1.53949,-19.24345 0,16.83426 c -0.108485,0.0286 3.066514,0 3.066514,0 l 0,-16.83426 -3.066565,0 z m -5.553938,-20.05212 c -4.004508,0 -7.282668,3.3028 -7.282668,7.30725 l 0,8.04541 c 0,4.00452 3.27816,7.28266 7.282668,7.28266 l 14.17168,0 c 4.004508,0 7.282669,-3.27814 7.282669,-7.28266 l 0,-8.04541 c 0,-4.00445 -3.278161,-7.30725 -7.282669,-7.30725 l -14.17168,0 z m 0,3.93658 14.17168,0 c 1.891735,0 3.346091,1.47897 3.346091,3.37067 l 0,8.04541 c 0,1.89177 -1.454356,3.3461 -3.346091,3.3461 l -14.17168,0 c -1.891735,0 -3.346092,-1.45433 -3.346092,-3.3461 l 0,-8.04541 c 0,-1.8917 1.454357,-3.37067 3.346092,-3.37067 z"
       visibility="visible"
       display="inline"
       overflow="visible"
       id="path6"
       inkscape:connector-curvature="0" />
  </g>
</svg>
