<?xml version="1.0" encoding="UTF-8" standalone="no"?>
<svg
   xmlns:dc="http://purl.org/dc/elements/1.1/"
   xmlns:cc="http://creativecommons.org/ns#"
   xmlns:rdf="http://www.w3.org/1999/02/22-rdf-syntax-ns#"
   xmlns:svg="http://www.w3.org/2000/svg"
   xmlns="http://www.w3.org/2000/svg"
   xmlns:sodipodi="http://sodipodi.sourceforge.net/DTD/sodipodi-0.dtd"
   xmlns:inkscape="http://www.inkscape.org/namespaces/inkscape"
   version="1.1"
   x="0px"
   y="0px"
   viewBox="0.5 24.5 48 48"
   enable-background="new 0.5 24.5 24 24"
   xml:space="preserve"
   id="svg2"
   inkscape:version="0.48.4 r9939"
   width="100%"
   height="100%"
   sodipodi:docname="noun_225624_cc.svg"><metadata
     id="metadata24"><rdf:RDF><cc:Work
         rdf:about=""><dc:format>image/svg+xml</dc:format><dc:type
           rdf:resource="http://purl.org/dc/dcmitype/StillImage" /></cc:Work></rdf:RDF></metadata><defs
     id="defs22" /><sodipodi:namedview
     pagecolor="#ffffff"
     bordercolor="#666666"
     borderopacity="1"
     objecttolerance="10"
     gridtolerance="10"
     guidetolerance="10"
     inkscape:pageopacity="0"
     inkscape:pageshadow="2"
     inkscape:window-width="1366"
     inkscape:window-height="744"
     id="namedview20"
     showgrid="false"
     inkscape:zoom="7.8666667"
     inkscape:cx="-1.8559322"
     inkscape:cy="15"
     inkscape:window-x="0"
     inkscape:window-y="24"
     inkscape:window-maximized="1"
     inkscape:current-layer="svg2" /><g
     id="g4"
     style="fill:#00bcd4"
     transform="matrix(2,0,0,2,-0.5,-24.5)"><circle
       cx="11.563"
       cy="36.5"
       r="3"
       id="circle6"
       sodipodi:cx="11.563"
       sodipodi:cy="36.5"
       sodipodi:rx="3"
       sodipodi:ry="3"
       d="m 14.563,36.5 c 0,1.656854 -1.343146,3 -3,3 -1.6568545,0 -3.0000003,-1.343146 -3.0000003,-3 0,-1.656854 1.3431458,-3 3.0000003,-3 1.656854,0 3,1.343146 3,3 z"
       style="fill:#00bcd4" /><path
       d="m 21.934,38.57 c -0.508,-0.205 -1.095,0.044 -1.3,0.559 L 19.118,42.917 16.162,40.7 c -0.173,-0.13 -0.383,-0.2 -0.6,-0.2 h -8 c -0.216,0 -0.427,0.07 -0.6,0.2 L 4.006,42.917 2.491,39.129 C 2.286,38.615 1.707,38.366 1.191,38.57 0.678,38.775 0.429,39.357 0.634,39.871 l 2,5 c 0.116,0.289 0.359,0.508 0.659,0.592 0.299,0.082 0.621,0.023 0.87,-0.163 l 3.4,-2.55 v 5.75 h 8 v -5.75 l 3.4,2.55 c 0.176,0.132 0.387,0.2 0.6,0.2 0.09,0 0.182,-0.014 0.271,-0.037 0.3,-0.084 0.543,-0.303 0.659,-0.592 l 2,-5 c 0.202,-0.514 -0.048,-1.096 -0.559,-1.301 z"
       id="path8"
       inkscape:connector-curvature="0"
       style="fill:#00bcd4" /><path
       d="m 12.5,30.5 c 1.657,0 3,-1.343 3,-3 0,-1.657 -1.343,-3 -3,-3 -1.657,0 -3,1.343 -3,3 0,1.657 1.343,3 3,3 z m 0,-5 c 1.103,0 2,0.897 2,2 0,1.103 -0.897,2 -2,2 -1.103,0 -2,-0.897 -2,-2 0,-1.103 0.897,-2 2,-2 z"
       id="path10"
       inkscape:connector-curvature="0"
       style="fill:#00bcd4" /><path
       d="m 20.5,27.5 -4,7 h 8 l -4,-7 z m 0,2.016 2.276,3.984 H 18.223 L 20.5,29.516 z"
       id="path12"
       inkscape:connector-curvature="0"
       style="fill:#00bcd4" /><path
       d="m 8.5,32.5 -4,-4 -4,4 4,4 4,-4 z M 4.5,29.914 7.086,32.5 4.5,35.086 1.914,32.5 4.5,29.914 z"
       id="path14"
       inkscape:connector-curvature="0"
       style="fill:#00bcd4" /></g></svg>